<svg width="53" height="25" viewBox="0 0 53 25" fill="none" xmlns="http://www.w3.org/2000/svg">
<path d="M0.406494 18.8182V0.531849H8.18967C9.45804 0.531849 10.5452 0.744577 11.4512 1.17003C12.3572 1.59549 13.049 2.20912 13.5267 3.01094C14.0044 3.7964 14.2433 4.75367 14.2433 5.88276C14.2433 6.68458 14.0209 7.45367 13.5761 8.19003C13.1314 8.91003 12.3984 9.51549 11.3771 10.0064V8.14094C12.3489 8.51731 13.0984 8.96731 13.6255 9.49094C14.1527 10.0146 14.515 10.5873 14.7127 11.2091C14.9104 11.8146 15.0092 12.4528 15.0092 13.1237C15.0092 14.9237 14.408 16.3228 13.2055 17.3209C12.003 18.3191 10.3311 18.8182 8.18967 18.8182H0.406494ZM4.23631 15.5046H8.63442C9.40862 15.5046 10.0263 15.2837 10.4876 14.8419C10.9488 14.4 11.1794 13.8273 11.1794 13.1237C11.1794 12.4037 10.9488 11.8228 10.4876 11.3809C10.0263 10.9391 9.40862 10.7182 8.63442 10.7182H4.23631V15.5046ZM4.23631 7.40458H8.46146C9.05447 7.40458 9.52393 7.24094 9.86985 6.91367C10.2322 6.57003 10.4134 6.12003 10.4134 5.56367C10.4134 5.00731 10.2322 4.56549 9.86985 4.23821C9.52393 3.89458 9.05447 3.72276 8.46146 3.72276H4.23631V7.40458Z" fill="#141624"/>
<path d="M17.1942 18.8182V0.237305H20.9005V18.8182H17.1942Z" fill="#141624"/>
<path d="M30.3086 19.1128C28.9743 19.1128 27.7554 18.81 26.6517 18.2046C25.5646 17.5991 24.6915 16.7728 24.0326 15.7255C23.3902 14.6619 23.069 13.4591 23.069 12.1173C23.069 10.7591 23.3902 9.5564 24.0326 8.50912C24.6915 7.46185 25.5646 6.63549 26.6517 6.03003C27.7554 5.42458 28.9743 5.12185 30.3086 5.12185C31.6429 5.12185 32.8536 5.42458 33.9407 6.03003C35.0279 6.63549 35.8927 7.46185 36.5351 8.50912C37.194 9.5564 37.5235 10.7591 37.5235 12.1173C37.5235 13.4591 37.194 14.6619 36.5351 15.7255C35.8927 16.7728 35.0279 17.5991 33.9407 18.2046C32.8536 18.81 31.6429 19.1128 30.3086 19.1128ZM30.3086 15.7991C30.984 15.7991 31.5687 15.6437 32.0629 15.3328C32.5735 15.0219 32.9689 14.5882 33.2489 14.0319C33.5454 13.4755 33.6937 12.8373 33.6937 12.1173C33.6937 11.3973 33.5454 10.7673 33.2489 10.2273C32.9689 9.67094 32.5735 9.23731 32.0629 8.9264C31.5687 8.59912 30.984 8.43549 30.3086 8.43549C29.6332 8.43549 29.0402 8.59912 28.5296 8.9264C28.0189 9.23731 27.6154 9.67094 27.3189 10.2273C27.0388 10.7673 26.8988 11.3973 26.8988 12.1173C26.8988 12.8373 27.0388 13.4755 27.3189 14.0319C27.6154 14.5882 28.0189 15.0219 28.5296 15.3328C29.0402 15.6437 29.6332 15.7991 30.3086 15.7991Z" fill="#141624"/>
<path d="M46.3288 24.2182C45.291 24.2182 44.3274 24.0464 43.4379 23.7028C42.5484 23.3591 41.7824 22.8764 41.14 22.2546C40.514 21.6491 40.0611 20.9291 39.781 20.0946L43.2155 18.8919C43.3967 19.5137 43.7673 20.0046 44.3274 20.3646C44.8874 20.7246 45.5546 20.9046 46.3288 20.9046C46.9383 20.9046 47.4654 20.79 47.9101 20.5609C48.3549 20.3482 48.6926 20.0291 48.9232 19.6037C49.1703 19.1782 49.2938 18.6791 49.2938 18.1064V15.0382L50.0103 15.9219C49.5491 16.6746 48.9561 17.2391 48.2313 17.6155C47.5065 17.9755 46.6582 18.1555 45.6864 18.1555C44.4345 18.1555 43.3143 17.8773 42.326 17.3209C41.3377 16.7482 40.5635 15.9709 40.0034 14.9891C39.4433 13.9909 39.1633 12.8619 39.1633 11.6019C39.1633 10.3419 39.4433 9.22912 40.0034 8.26367C40.5635 7.28185 41.3294 6.51276 42.3013 5.9564C43.2732 5.40003 44.3768 5.12185 45.6122 5.12185C46.5841 5.12185 47.4324 5.31821 48.1572 5.71094C48.882 6.0873 49.4997 6.66821 50.0103 7.45367L49.5409 8.33731V5.4164H53.0001V18.1064C53.0001 19.2846 52.7118 20.3319 52.1353 21.2482C51.5587 22.1809 50.7681 22.9091 49.7633 23.4328C48.7749 23.9564 47.6301 24.2182 46.3288 24.2182ZM46.2052 14.8173C46.8312 14.8173 47.3748 14.6864 47.836 14.4246C48.2972 14.1628 48.6514 13.7946 48.8985 13.32C49.162 12.8455 49.2938 12.2891 49.2938 11.6509C49.2938 11.0128 49.162 10.4564 48.8985 9.98185C48.6349 9.49094 48.2725 9.11458 47.8113 8.85276C47.3501 8.57458 46.8147 8.43549 46.2052 8.43549C45.5793 8.43549 45.0192 8.57458 44.5251 8.85276C44.0474 9.11458 43.6685 9.49094 43.3885 9.98185C43.1249 10.4564 42.9931 11.0128 42.9931 11.6509C42.9931 12.2728 43.1249 12.8209 43.3885 13.2955C43.6685 13.77 44.0474 14.1464 44.5251 14.4246C45.0192 14.6864 45.5793 14.8173 46.2052 14.8173Z" fill="#141624"/>
</svg>
