<svg width="56" height="20" viewBox="0 0 56 20" fill="none" xmlns="http://www.w3.org/2000/svg">
<path d="M0.00244141 18.8181V0.531738H1.73204L8.65042 10.4972H7.68678L14.5805 0.531738H16.31V18.8181H14.3334V3.18265L14.9758 3.4281L8.20566 13.1726H8.10683L1.36141 3.4281L1.97912 3.18265V18.8181H0.00244141Z" fill="#141624"/>
<path d="M26.4143 19.1126C25.1789 19.1126 24.0587 18.8181 23.0539 18.229C22.0656 17.6236 21.2831 16.7972 20.7066 15.7499C20.1301 14.7027 19.8418 13.5163 19.8418 12.1908C19.8418 10.8654 20.1218 9.69538 20.6819 8.68083C21.242 7.64992 21.9997 6.83992 22.9551 6.25083C23.927 5.66174 25.0141 5.36719 26.2166 5.36719C27.172 5.36719 28.0203 5.54719 28.7616 5.90719C29.5193 6.25083 30.1617 6.72538 30.6888 7.33083C31.216 7.91992 31.6195 8.59083 31.8996 9.34356C32.1796 10.0799 32.3196 10.8408 32.3196 11.6263C32.3196 11.7899 32.3114 11.9781 32.2949 12.1908C32.2784 12.3872 32.2537 12.5917 32.2208 12.8045H21.0278V11.0863H31.1583L30.2688 11.8226C30.4171 10.9226 30.31 10.1208 29.9476 9.41719C29.6017 8.6972 29.0993 8.13265 28.4404 7.72356C27.7815 7.2981 27.0402 7.08538 26.2166 7.08538C25.393 7.08538 24.627 7.2981 23.9187 7.72356C23.2269 8.14901 22.6833 8.74629 22.288 9.51538C21.8926 10.2681 21.7361 11.1681 21.8185 12.2154C21.7361 13.2626 21.9009 14.179 22.3127 14.9645C22.7409 15.7336 23.3175 16.3308 24.0423 16.7563C24.7835 17.1817 25.5742 17.3945 26.4143 17.3945C27.3861 17.3945 28.2015 17.1654 28.8604 16.7072C29.5193 16.249 30.0547 15.6763 30.4665 14.989L32.0478 15.8236C31.7843 16.4127 31.3807 16.9608 30.8371 17.4681C30.2935 17.959 29.6429 18.3599 28.8851 18.6708C28.1439 18.9654 27.3203 19.1126 26.4143 19.1126Z" fill="#141624"/>
<path d="M40.6522 18.9654C39.4662 18.9654 38.5519 18.6217 37.9095 17.9345C37.2671 17.2472 36.9459 16.2654 36.9459 14.989V7.50265H34.4997V5.66174H35.1175C35.6775 5.66174 36.1223 5.48174 36.4517 5.12174C36.7812 4.74538 36.9459 4.27901 36.9459 3.72265V2.6181H38.799V5.66174H41.7146V7.50265H38.799V14.989C38.799 15.4308 38.8649 15.8236 38.9967 16.1672C39.1285 16.4945 39.3508 16.7563 39.6638 16.9527C39.9933 17.149 40.4298 17.2472 40.9734 17.2472C41.1052 17.2472 41.2616 17.239 41.4428 17.2227C41.624 17.2063 41.7805 17.1899 41.9123 17.1736V18.8181C41.7146 18.8672 41.4923 18.8999 41.2452 18.9163C40.9981 18.949 40.8004 18.9654 40.6522 18.9654Z" fill="#141624"/>
<path d="M48.7548 19.1126C47.9147 19.1126 47.1652 18.9572 46.5063 18.6463C45.8474 18.319 45.3286 17.8772 44.9497 17.3208C44.5708 16.7645 44.3814 16.1263 44.3814 15.4063C44.3814 14.719 44.5297 14.0972 44.8262 13.5408C45.1227 12.9681 45.5839 12.4854 46.2098 12.0926C46.8358 11.6999 47.6347 11.4217 48.6066 11.2581L53.7953 10.399V12.0681L49.0513 12.8536C48.0959 13.0172 47.4041 13.3199 46.9758 13.7617C46.564 14.2036 46.3581 14.7272 46.3581 15.3327C46.3581 15.9217 46.5887 16.4208 47.0499 16.8299C47.5276 17.239 48.1371 17.4436 48.8784 17.4436C49.7843 17.4436 50.575 17.2554 51.2504 16.879C51.9257 16.4863 52.4528 15.9626 52.8317 15.3081C53.2106 14.6536 53.4 13.9254 53.4 13.1236V9.78538C53.4 8.99992 53.1117 8.36174 52.5352 7.87083C51.9587 7.37992 51.2092 7.13447 50.2867 7.13447C49.4796 7.13447 48.7713 7.33901 48.1618 7.7481C47.5523 8.14083 47.0993 8.65629 46.8028 9.29447L45.1227 8.38629C45.3697 7.82992 45.7568 7.32265 46.284 6.86447C46.8275 6.40628 47.4453 6.04628 48.1371 5.78447C48.8289 5.50629 49.5455 5.36719 50.2867 5.36719C51.2586 5.36719 52.1152 5.55538 52.8564 5.93174C53.6142 6.3081 54.1989 6.83174 54.6107 7.50265C55.039 8.15719 55.2531 8.9181 55.2531 9.78538V18.8181H53.4V16.1917L53.6718 16.4617C53.4412 16.9527 53.0788 17.4027 52.5846 17.8117C52.1069 18.2045 51.5386 18.5236 50.8797 18.769C50.2373 18.9981 49.529 19.1126 48.7548 19.1126Z" fill="#141624"/>
</svg>